<svg xmlns="http://www.w3.org/2000/svg" xmlns:xlink="http://www.w3.org/1999/xlink" width="4000" zoomAndPan="magnify" viewBox="0 0 3000 1499.999933" height="2000" preserveAspectRatio="xMidYMid meet" version="1.0"><defs><g/><clipPath id="a59cc64fa2"><path d="M 24.152344 0.316406 L 124 0.316406 L 124 100.246094 L 24.152344 100.246094 Z M 24.152344 0.316406 " clip-rule="nonzero"/></clipPath><clipPath id="855dda39a2"><rect x="0" width="2370" y="0" height="672"/></clipPath></defs><g transform="matrix(1, 0, 0, 1, 307, 453)"><g clip-path="url(#855dda39a2)"><g clip-path="url(#a59cc64fa2)"><path fill="#5b8cff" d="M 123.894531 50.1875 C 123.894531 51.820312 123.8125 53.449219 123.652344 55.074219 C 123.492188 56.699219 123.253906 58.316406 122.9375 59.917969 C 122.617188 61.519531 122.222656 63.101562 121.746094 64.664062 C 121.273438 66.226562 120.722656 67.761719 120.097656 69.273438 C 119.472656 70.78125 118.777344 72.257812 118.003906 73.695312 C 117.234375 75.136719 116.398438 76.535156 115.488281 77.894531 C 114.582031 79.253906 113.609375 80.5625 112.574219 81.824219 C 111.539062 83.085938 110.441406 84.296875 109.289062 85.453125 C 108.132812 86.605469 106.921875 87.703125 105.660156 88.738281 C 104.398438 89.773438 103.089844 90.746094 101.730469 91.652344 C 100.371094 92.5625 98.972656 93.398438 97.53125 94.167969 C 96.09375 94.941406 94.617188 95.636719 93.109375 96.261719 C 91.597656 96.886719 90.0625 97.4375 88.5 97.910156 C 86.9375 98.386719 85.355469 98.78125 83.753906 99.101562 C 82.152344 99.417969 80.539062 99.65625 78.910156 99.816406 C 77.285156 99.976562 75.65625 100.058594 74.023438 100.058594 C 72.390625 100.058594 70.761719 99.976562 69.136719 99.816406 C 67.511719 99.65625 65.894531 99.417969 64.292969 99.101562 C 62.691406 98.78125 61.109375 98.386719 59.546875 97.910156 C 57.984375 97.4375 56.449219 96.886719 54.9375 96.261719 C 53.429688 95.636719 51.953125 94.941406 50.515625 94.167969 C 49.074219 93.398438 47.675781 92.5625 46.316406 91.652344 C 44.957031 90.746094 43.648438 89.773438 42.386719 88.738281 C 41.125 87.703125 39.914062 86.605469 38.757812 85.453125 C 37.605469 84.296875 36.507812 83.085938 35.472656 81.824219 C 34.4375 80.5625 33.464844 79.253906 32.558594 77.894531 C 31.648438 76.535156 30.8125 75.136719 30.042969 73.695312 C 29.269531 72.257812 28.574219 70.78125 27.949219 69.273438 C 27.324219 67.761719 26.773438 66.226562 26.300781 64.664062 C 25.824219 63.101562 25.429688 61.519531 25.109375 59.917969 C 24.792969 58.316406 24.554688 56.699219 24.394531 55.074219 C 24.234375 53.449219 24.152344 51.820312 24.152344 50.1875 C 24.152344 48.554688 24.234375 46.925781 24.394531 45.300781 C 24.554688 43.671875 24.792969 42.058594 25.109375 40.457031 C 25.429688 38.855469 25.824219 37.273438 26.300781 35.710938 C 26.773438 34.148438 27.324219 32.613281 27.949219 31.101562 C 28.574219 29.59375 29.269531 28.117188 30.042969 26.679688 C 30.8125 25.238281 31.648438 23.839844 32.558594 22.480469 C 33.464844 21.121094 34.4375 19.8125 35.472656 18.550781 C 36.507812 17.285156 37.605469 16.078125 38.757812 14.921875 C 39.914062 13.769531 41.125 12.671875 42.386719 11.636719 C 43.648438 10.601562 44.957031 9.628906 46.316406 8.722656 C 47.675781 7.8125 49.074219 6.976562 50.515625 6.207031 C 51.953125 5.433594 53.429688 4.738281 54.9375 4.113281 C 56.449219 3.488281 57.984375 2.9375 59.546875 2.464844 C 61.109375 1.988281 62.691406 1.59375 64.292969 1.273438 C 65.894531 0.957031 67.511719 0.714844 69.136719 0.558594 C 70.761719 0.398438 72.390625 0.316406 74.023438 0.316406 C 75.65625 0.316406 77.285156 0.398438 78.910156 0.558594 C 80.539062 0.714844 82.152344 0.957031 83.753906 1.273438 C 85.355469 1.59375 86.9375 1.988281 88.5 2.464844 C 90.0625 2.9375 91.597656 3.488281 93.109375 4.113281 C 94.617188 4.738281 96.09375 5.433594 97.53125 6.207031 C 98.972656 6.976562 100.371094 7.8125 101.730469 8.722656 C 103.089844 9.628906 104.398438 10.601562 105.660156 11.636719 C 106.921875 12.671875 108.132812 13.769531 109.289062 14.921875 C 110.441406 16.078125 111.539062 17.285156 112.574219 18.550781 C 113.609375 19.8125 114.582031 21.121094 115.488281 22.480469 C 116.398438 23.839844 117.234375 25.238281 118.003906 26.679688 C 118.777344 28.117188 119.472656 29.59375 120.097656 31.101562 C 120.722656 32.613281 121.273438 34.148438 121.746094 35.710938 C 122.222656 37.273438 122.617188 38.855469 122.9375 40.457031 C 123.253906 42.058594 123.496094 43.671875 123.652344 45.300781 C 123.8125 46.925781 123.894531 48.554688 123.894531 50.1875 Z M 123.894531 50.1875 " fill-opacity="1" fill-rule="nonzero"/></g><g fill="#5b8cff" fill-opacity="1"><g transform="translate(1.175134, 506.430775)"><g><path d="M 116 -385.90625 L 116 0 L 28.0625 0 L 28.0625 -385.90625 Z M 116 -385.90625 "/></g></g></g><g fill="#5b8cff" fill-opacity="1"><g transform="translate(126.534512, 506.430775)"><g><path d="M 251.1875 -385.90625 L 251.1875 -308.71875 L 116 -308.71875 L 116 -232.015625 L 240.90625 -232.015625 L 240.90625 -154.828125 L 116 -154.828125 L 116 0 L 28.0625 0 L 28.0625 -385.90625 Z M 251.1875 -385.90625 "/></g></g></g><g fill="#5b8cff" fill-opacity="1"><g transform="translate(373.043515, 506.430775)"><g><path d="M 377.015625 -216.109375 L 377.015625 -132.375 C 367.035156 -86.53125 345.207031 -51.835938 311.53125 -28.296875 C 277.851562 -4.753906 240.273438 7.015625 198.796875 7.015625 C 146.722656 7.015625 102.363281 -12.472656 65.71875 -51.453125 C 29.082031 -90.429688 10.765625 -137.519531 10.765625 -192.71875 C 10.765625 -248.851562 28.691406 -296.253906 64.546875 -334.921875 C 100.410156 -373.585938 145.160156 -392.921875 198.796875 -392.921875 C 261.484375 -392.921875 311.066406 -370.9375 347.546875 -326.96875 L 290.015625 -263.8125 C 269.429688 -296.875 240.742188 -313.40625 203.953125 -313.40625 C 176.816406 -313.40625 153.660156 -301.628906 134.484375 -278.078125 C 115.304688 -254.535156 105.71875 -226.082031 105.71875 -192.71875 C 105.71875 -159.976562 115.304688 -131.988281 134.484375 -108.75 C 153.660156 -85.519531 176.816406 -73.90625 203.953125 -73.90625 C 226.398438 -73.90625 245.960938 -80.6875 262.640625 -94.25 C 279.328125 -107.820312 287.671875 -125.832031 287.671875 -148.28125 L 198.796875 -148.28125 L 198.796875 -216.109375 Z M 377.015625 -216.109375 "/></g></g></g><g fill="#5b8cff" fill-opacity="1"><g transform="translate(719.652971, 506.430775)"><g><path d="M 3.734375 -308.71875 L 3.734375 -385.90625 L 275.046875 -385.90625 L 275.046875 -308.71875 L 183.359375 -308.71875 L 183.359375 0 L 95.421875 0 L 95.421875 -308.71875 Z M 3.734375 -308.71875 "/></g></g></g><g fill="#4f7cff" fill-opacity="1"><g transform="translate(979.749019, 506.430775)"><g/></g></g><g fill="#dfdfdf" fill-opacity="1"><g transform="translate(1140.47793, 502.896656)"><g><path d="M 117.421875 -219.09375 C 129.597656 -219.09375 141.632812 -217.707031 153.53125 -214.9375 C 165.425781 -212.164062 174.273438 -209.398438 180.078125 -206.640625 L 188.796875 -202.484375 L 164.734375 -154.359375 C 148.128906 -163.210938 132.359375 -167.640625 117.421875 -167.640625 C 109.128906 -167.640625 103.253906 -166.738281 99.796875 -164.9375 C 96.335938 -163.132812 94.609375 -159.742188 94.609375 -154.765625 C 94.609375 -153.660156 94.742188 -152.554688 95.015625 -151.453125 C 95.296875 -150.347656 95.847656 -149.3125 96.671875 -148.34375 C 97.503906 -147.375 98.265625 -146.539062 98.953125 -145.84375 C 99.648438 -145.15625 100.828125 -144.394531 102.484375 -143.5625 C 104.148438 -142.738281 105.46875 -142.117188 106.4375 -141.703125 C 107.40625 -141.285156 108.992188 -140.660156 111.203125 -139.828125 C 113.410156 -139.003906 115.066406 -138.382812 116.171875 -137.96875 C 117.285156 -137.550781 119.15625 -136.925781 121.78125 -136.09375 C 124.40625 -135.269531 126.410156 -134.71875 127.796875 -134.4375 C 136.367188 -131.945312 143.835938 -129.179688 150.203125 -126.140625 C 156.566406 -123.097656 163.273438 -118.945312 170.328125 -113.6875 C 177.378906 -108.4375 182.84375 -101.800781 186.71875 -93.78125 C 190.59375 -85.757812 192.53125 -76.628906 192.53125 -66.390625 C 192.53125 -17.984375 158.921875 6.21875 91.703125 6.21875 C 76.484375 6.21875 62.023438 3.867188 48.328125 -0.828125 C 34.640625 -5.535156 24.753906 -10.238281 18.671875 -14.9375 L 9.546875 -22.40625 L 39.421875 -72.609375 C 41.628906 -70.671875 44.53125 -68.390625 48.125 -65.765625 C 51.726562 -63.140625 58.234375 -59.539062 67.640625 -54.96875 C 77.046875 -50.40625 85.203125 -48.125 92.109375 -48.125 C 107.328125 -48.125 114.9375 -53.242188 114.9375 -63.484375 C 114.9375 -68.191406 113 -71.859375 109.125 -74.484375 C 105.25 -77.109375 98.675781 -80.078125 89.40625 -83.390625 C 80.144531 -86.710938 72.890625 -89.757812 67.640625 -92.53125 C 54.359375 -99.445312 43.84375 -107.257812 36.09375 -115.96875 C 28.351562 -124.6875 24.484375 -136.238281 24.484375 -150.625 C 24.484375 -172.195312 32.847656 -189 49.578125 -201.03125 C 66.316406 -213.070312 88.929688 -219.09375 117.421875 -219.09375 Z M 117.421875 -219.09375 "/></g></g></g><g fill="#dfdfdf" fill-opacity="1"><g transform="translate(1324.292286, 502.896656)"><g><path d="M 37.34375 -212.859375 L 37.34375 -292.109375 L 110.78125 -292.109375 L 110.78125 -212.859375 L 155.59375 -212.859375 L 155.59375 -156.84375 L 110.78125 -156.84375 L 110.78125 -89.21875 C 110.78125 -69.570312 116.316406 -59.75 127.390625 -59.75 C 130.148438 -59.75 133.050781 -60.300781 136.09375 -61.40625 C 139.132812 -62.519531 141.488281 -63.628906 143.15625 -64.734375 L 145.640625 -66.390625 L 163.90625 -7.046875 C 148.132812 1.792969 130.148438 6.21875 109.953125 6.21875 C 96.128906 6.21875 84.238281 3.800781 74.28125 -1.03125 C 64.320312 -5.875 56.78125 -12.375 51.65625 -20.53125 C 46.539062 -28.695312 42.875 -37.273438 40.65625 -46.265625 C 38.445312 -55.253906 37.34375 -64.867188 37.34375 -75.109375 L 37.34375 -156.84375 L 6.640625 -156.84375 L 6.640625 -212.859375 Z M 37.34375 -212.859375 "/></g></g></g><g fill="#dfdfdf" fill-opacity="1"><g transform="translate(1471.592704, 502.896656)"><g><path d="M 94.1875 -212.859375 L 94.1875 -111.625 C 94.1875 -90.59375 97.367188 -75.648438 103.734375 -66.796875 C 110.097656 -57.953125 120.882812 -53.53125 136.09375 -53.53125 C 151.3125 -53.53125 162.101562 -57.953125 168.46875 -66.796875 C 174.832031 -75.648438 178.015625 -90.59375 178.015625 -111.625 L 178.015625 -212.859375 L 251.453125 -212.859375 L 251.453125 -93.78125 C 251.453125 -58.363281 242.253906 -32.84375 223.859375 -17.21875 C 205.460938 -1.59375 176.207031 6.21875 136.09375 6.21875 C 95.988281 6.21875 66.738281 -1.59375 48.34375 -17.21875 C 29.945312 -32.84375 20.75 -58.363281 20.75 -93.78125 L 20.75 -212.859375 Z M 94.1875 -212.859375 "/></g></g></g><g fill="#dfdfdf" fill-opacity="1"><g transform="translate(1727.190211, 502.896656)"><g><path d="M 39.421875 -26.34375 C 19.503906 -48.0625 9.546875 -74.6875 9.546875 -106.21875 C 9.546875 -137.757812 19.503906 -164.457031 39.421875 -186.3125 C 59.335938 -208.164062 84.648438 -219.09375 115.359375 -219.09375 C 143.566406 -219.09375 166.800781 -210.238281 185.0625 -192.53125 L 185.0625 -356.84375 L 258.5 -356.84375 L 258.5 0 L 185.890625 0 L 185.890625 -24.0625 L 185.0625 -24.0625 C 166.800781 -3.875 143.566406 6.21875 115.359375 6.21875 C 84.648438 6.21875 59.335938 -4.632812 39.421875 -26.34375 Z M 101.859375 -142.328125 C 92.316406 -132.921875 87.546875 -120.882812 87.546875 -106.21875 C 87.546875 -91.5625 92.109375 -79.597656 101.234375 -70.328125 C 110.367188 -61.066406 122.40625 -56.4375 137.34375 -56.4375 C 151.726562 -56.4375 163.550781 -61.132812 172.8125 -70.53125 C 182.082031 -79.9375 186.71875 -91.832031 186.71875 -106.21875 C 186.71875 -120.882812 181.945312 -132.921875 172.40625 -142.328125 C 162.863281 -151.734375 151.175781 -156.4375 137.34375 -156.4375 C 123.238281 -156.4375 111.410156 -151.734375 101.859375 -142.328125 Z M 101.859375 -142.328125 "/></g></g></g><g fill="#dfdfdf" fill-opacity="1"><g transform="translate(1993.990878, 502.896656)"><g><path d="M 31.953125 -331.53125 C 40.523438 -340.101562 50.757812 -344.390625 62.65625 -344.390625 C 74.550781 -344.390625 84.785156 -340.101562 93.359375 -331.53125 C 101.929688 -322.957031 106.21875 -312.722656 106.21875 -300.828125 C 106.21875 -288.929688 101.929688 -278.695312 93.359375 -270.125 C 84.785156 -261.550781 74.550781 -257.265625 62.65625 -257.265625 C 50.757812 -257.265625 40.523438 -261.550781 31.953125 -270.125 C 23.378906 -278.695312 19.09375 -288.929688 19.09375 -300.828125 C 19.09375 -312.722656 23.378906 -322.957031 31.953125 -331.53125 Z M 24.890625 -212.859375 L 24.890625 0 L 98.34375 0 L 98.34375 -212.859375 Z M 24.890625 -212.859375 "/></g></g></g><g fill="#dfdfdf" fill-opacity="1"><g transform="translate(2102.702639, 502.896656)"><g><path d="M 45.015625 -25.3125 C 21.367188 -46.332031 9.546875 -73.300781 9.546875 -106.21875 C 9.546875 -139.132812 21.851562 -166.175781 46.46875 -187.34375 C 71.09375 -208.507812 101.523438 -219.09375 137.765625 -219.09375 C 173.441406 -219.09375 203.519531 -208.441406 228 -187.140625 C 252.488281 -165.835938 264.734375 -138.863281 264.734375 -106.21875 C 264.734375 -73.582031 252.769531 -46.679688 228.84375 -25.515625 C 204.914062 -4.359375 174.554688 6.21875 137.765625 6.21875 C 99.585938 6.21875 68.671875 -4.289062 45.015625 -25.3125 Z M 101.859375 -142.328125 C 92.316406 -132.921875 87.546875 -120.882812 87.546875 -106.21875 C 87.546875 -91.5625 92.109375 -79.597656 101.234375 -70.328125 C 110.367188 -61.066406 122.40625 -56.4375 137.34375 -56.4375 C 151.726562 -56.4375 163.550781 -61.132812 172.8125 -70.53125 C 182.082031 -79.9375 186.71875 -91.832031 186.71875 -106.21875 C 186.71875 -120.882812 181.945312 -132.921875 172.40625 -142.328125 C 162.863281 -151.734375 151.175781 -156.4375 137.34375 -156.4375 C 123.238281 -156.4375 111.410156 -151.734375 101.859375 -142.328125 Z M 101.859375 -142.328125 "/></g></g></g></g></g></svg>